<svg width="319" height="221" viewBox="0 0 319 221" fill="none" xmlns="http://www.w3.org/2000/svg">
<path d="M79.6615 88.2652L252.038 41.8481L244.66 14.4444C241.858 4.05227 231.129 -2.12329 220.73 0.672764L69.946 41.2834C59.5501 44.0797 53.3727 54.8136 56.1744 65.2038L63.5472 92.5987V200.511C63.5472 211.272 72.3125 220.03 83.0719 220.03H239.232C249.997 220.03 258.753 211.274 258.753 200.511V144.388V88.2661L79.6615 88.2652ZM215.09 20.1651L225.25 17.4291C226.405 17.1202 227.602 17.8038 227.911 18.9607L232.749 36.9338L208.909 43.3527L215.09 20.1651ZM167.969 32.8545L190.905 26.679L184.718 49.8667L161.784 56.0422L167.969 32.8545ZM120.844 45.5439L143.783 39.3721L137.606 62.5561L114.67 68.7316L120.844 45.5439ZM74.4601 58.0377L96.6624 52.0559L90.4794 75.2399L77.7755 78.6649L72.932 60.688C72.6176 59.5384 73.3069 58.3521 74.4601 58.0377ZM241.4 200.512C241.4 201.709 240.429 202.678 239.234 202.678H83.0743C81.8808 202.678 80.9067 201.707 80.9067 200.512L80.9085 99.1083H241.401L241.4 200.512Z" fill="#397BDA"/>
<rect x="80" y="96" width="166" height="107" fill="#000206"/>
<g clip-path="url(#clip0_0_436)">
<path d="M32.5824 159.302C32.027 159.857 30.6384 160.504 28.4167 161.243C24.2917 162.532 19.9863 163.15 15.6651 163.074C11.5676 163.074 8.04708 161.984 5.10363 159.806C3.47986 158.694 2.16147 157.193 1.26967 155.439C0.377877 153.685 -0.0587426 151.735 -1.93692e-05 149.768C-1.93692e-05 145.627 1.54489 142.311 4.63468 139.82C7.58145 137.426 11.3298 136.228 15.8796 136.228C17.9544 136.225 20.0235 136.446 22.0509 136.887C23.4112 137.189 24.7457 137.598 26.042 138.109C26.6274 138.36 27.2271 138.577 27.838 138.758C27.9839 138.749 28.1256 138.705 28.2507 138.629C28.3758 138.554 28.4807 138.449 28.5564 138.324L29.1351 138.648L25.9721 145.183L25.3984 144.969C25.5182 144.37 25.3984 143.971 25.1091 143.747C24.4173 143.248 23.2199 142.799 21.5171 142.4C19.9647 142.024 18.3746 141.827 16.7776 141.811C14.7124 141.736 12.6651 142.218 10.8508 143.208C8.57588 144.538 7.43843 146.73 7.43843 149.783C7.40557 150.862 7.63544 151.932 8.10823 152.902C8.58103 153.872 9.28256 154.712 10.1524 155.351C11.9584 156.741 14.3464 157.436 17.3164 157.436C20.1667 157.436 22.3585 157.137 23.8918 156.538V153.196H17.7804C17.062 153.196 16.7028 153.53 16.7028 154.193H16.1291V147.159H16.7028C16.7028 147.824 17.062 148.157 17.7804 148.157H32.1135V148.73C31.5397 148.73 31.2504 149.09 31.2504 149.808V157.496C31.2504 158.404 31.6944 158.858 32.5824 158.858V159.302Z" fill="white"/>
<path d="M63.4587 141.377C62.5258 141.377 62.0568 141.691 62.0568 142.31V153.59C62.0568 156.729 60.931 159.124 58.6793 160.774C56.6206 162.26 53.8318 163.004 50.313 163.004C46.7941 163.004 44.0519 162.26 42.0863 160.774C39.8546 159.111 38.7404 156.716 38.7437 153.59V142.31C38.7437 141.691 38.2798 141.377 37.3419 141.377V140.788H46.2869V141.362C46.1624 141.347 46.0362 141.362 45.9182 141.404C45.8001 141.446 45.6935 141.515 45.6065 141.606C45.5196 141.696 45.4547 141.805 45.417 141.925C45.3792 142.044 45.3696 142.171 45.3889 142.295V154.258C45.3889 156.723 47.0303 157.955 50.313 157.955C53.7121 157.955 55.4116 156.723 55.4116 154.258V142.31C55.4309 142.186 55.4213 142.059 55.3836 141.94C55.3458 141.82 55.2809 141.711 55.194 141.621C55.107 141.53 55.0004 141.461 54.8824 141.419C54.7643 141.377 54.6381 141.362 54.5136 141.377V140.788H63.4587V141.377Z" fill="white"/>
<path d="M95.8864 162.739H85.744V162.141C86.5323 162.141 86.9264 161.961 86.9264 161.602C86.8376 161.099 86.6419 160.621 86.3527 160.2L83.085 154.562H78.3804V161.208C78.3804 161.831 78.7995 162.141 79.6376 162.141V162.739H70.7275V162.141C71.396 162.141 71.7253 161.831 71.7253 161.208V142.31C71.7253 141.691 71.386 141.377 70.7275 141.377V140.788H87.2407C89.6254 140.788 91.5345 141.41 92.968 142.654C93.6746 143.267 94.2346 144.031 94.6067 144.889C94.9789 145.747 95.1536 146.678 95.1182 147.613C95.1182 150.802 93.2889 153.066 89.6304 154.403L94.3 161.387C94.4791 161.637 94.7186 161.837 94.9961 161.968C95.2735 162.1 95.5799 162.159 95.8864 162.141V162.739ZM88.902 147.583C88.902 145.92 87.6099 145.089 85.0256 145.089H78.3804V150.402H85.9087C86.6033 150.418 87.2838 150.204 87.8444 149.793C88.1997 149.545 88.4841 149.208 88.6696 148.816C88.8551 148.424 88.9352 147.99 88.902 147.558V147.583Z" fill="white"/>
<path d="M127.267 141.377C126.334 141.377 125.865 141.691 125.865 142.31V153.59C125.865 156.729 124.739 159.124 122.487 160.774C120.425 162.26 117.636 163.004 114.121 163.004C110.605 163.004 107.863 162.26 105.894 160.774C103.669 159.111 102.555 156.716 102.552 153.59V142.31C102.552 141.691 102.088 141.377 101.155 141.377V140.788H110.095V141.362C109.97 141.347 109.844 141.362 109.726 141.404C109.608 141.446 109.501 141.515 109.414 141.606C109.327 141.696 109.263 141.805 109.225 141.925C109.187 142.044 109.178 142.171 109.197 142.295V154.258C109.197 156.723 110.838 157.955 114.121 157.955C117.52 157.955 119.22 156.723 119.22 154.258V142.31C119.239 142.186 119.229 142.059 119.191 141.94C119.154 141.82 119.089 141.711 119.002 141.621C118.915 141.53 118.808 141.461 118.69 141.419C118.572 141.377 118.446 141.362 118.321 141.377V140.788H127.267V141.377Z" fill="white"/>
<path d="M180.029 154.203C180.029 156.984 178.766 159.146 176.238 160.689C173.71 162.232 170.341 162.999 166.13 162.989C163.735 163.004 161.343 162.81 158.981 162.41C157.539 162.16 156.12 161.788 154.741 161.298C153.593 160.913 152.995 160.724 152.945 160.724C152.68 160.724 152.321 160.953 151.867 161.407L151.328 161.228L154.92 152.387L155.419 152.677C155.419 153.086 155.384 153.455 155.384 153.789C155.384 154.508 156.612 155.263 159.066 156.054C161.307 156.807 163.652 157.206 166.016 157.237C170.712 157.237 173.058 156.124 173.055 153.899C173.055 153.088 171.917 152.524 169.643 152.208C167.274 151.948 164.905 151.697 162.533 151.454C159.344 150.999 157.044 150.389 155.634 149.624C154.689 149.149 153.902 148.411 153.366 147.5C152.831 146.588 152.57 145.541 152.615 144.485C152.608 143.38 152.87 142.289 153.377 141.307C153.885 140.325 154.623 139.481 155.529 138.848C157.731 137.121 160.867 136.26 164.938 136.263C167.143 136.243 169.345 136.422 171.518 136.797C172.961 137.042 174.387 137.376 175.789 137.795C176.986 138.179 177.625 138.374 177.695 138.374C177.962 138.369 178.223 138.297 178.455 138.165C178.687 138.032 178.882 137.843 179.022 137.615L179.56 137.835L176.188 144.62L175.649 144.37C175.726 144.163 175.762 143.943 175.754 143.722C175.754 143.248 174.821 142.724 172.955 142.18C170.536 141.496 168.03 141.168 165.517 141.207C161.471 141.207 159.445 141.991 159.445 143.542C159.445 144.48 160.443 145.104 162.439 145.413L167.717 145.912C171.768 146.434 174.51 147.033 175.943 147.708C178.667 148.972 180.029 151.137 180.029 154.203Z" fill="white"/>
<path d="M208.157 146.944H207.578C207.578 146.226 207.269 145.867 206.645 145.867H199.531V161.207C199.531 161.831 199.93 162.14 200.718 162.14V162.739H191.738V162.14C192.507 162.14 192.891 161.831 192.891 161.207V145.867H185.777C185.178 145.867 184.879 146.226 184.879 146.944H184.355V139.76H184.894C184.894 140.459 185.193 140.803 185.792 140.803H206.66C207.284 140.803 207.593 140.459 207.593 139.76H208.172L208.157 146.944Z" fill="white"/>
<path d="M239.801 141.377C238.864 141.377 238.4 141.691 238.4 142.31V153.59C238.4 156.729 237.274 159.124 235.022 160.774C232.963 162.26 230.175 163.004 226.656 163.004C223.137 163.004 220.395 162.26 218.429 160.774C216.197 159.111 215.083 156.716 215.086 153.59V142.31C215.086 141.691 214.623 141.377 213.685 141.377V140.788H222.63V141.362C222.505 141.347 222.379 141.362 222.261 141.404C222.143 141.446 222.036 141.515 221.949 141.606C221.862 141.696 221.797 141.805 221.76 141.925C221.722 142.044 221.712 142.171 221.732 142.295V154.258C221.732 156.723 223.373 157.955 226.656 157.955C230.052 157.955 231.751 156.723 231.754 154.258V142.31C231.774 142.186 231.764 142.059 231.726 141.94C231.689 141.82 231.624 141.711 231.537 141.621C231.45 141.53 231.343 141.461 231.225 141.419C231.107 141.377 230.981 141.362 230.856 141.377V140.788H239.801V141.377Z" fill="white"/>
<path d="M271.77 151.764C271.77 155.665 270.584 158.598 268.213 160.564C266.507 161.977 264.356 162.741 262.142 162.719H246.337V162.141C247.27 162.141 247.739 161.831 247.739 161.208V142.35C247.739 141.701 247.27 141.377 246.337 141.377V140.788H262.301C264.481 140.788 266.587 141.579 268.228 143.013C270.586 145.015 271.767 147.932 271.77 151.764ZM265.285 151.764C265.285 147.656 263.021 145.604 258.495 145.607H254.364V157.96H258.495C263.035 157.943 265.305 155.878 265.305 151.764H265.285Z" fill="white"/>
<path d="M286.996 162.739H277.478V162.141C278.475 162.141 278.974 161.831 278.974 161.208V142.31C278.974 141.691 278.475 141.377 277.478 141.377V140.788H286.996V141.362C286.063 141.362 285.599 141.676 285.599 142.295V161.193C285.599 161.816 286.063 162.126 286.996 162.126V162.739Z" fill="white"/>
<path d="M319.005 151.973C319.035 153.528 318.695 155.069 318.015 156.468C317.334 157.866 316.331 159.084 315.089 160.02C312.601 162.016 309.523 163.013 305.854 163.013C302.096 163.013 298.96 162.016 296.445 160.02C295.199 159.088 294.193 157.871 293.512 156.471C292.831 155.071 292.494 153.529 292.529 151.973C292.529 148.361 293.894 145.499 296.625 143.387C299.089 141.478 302.166 140.52 305.854 140.513C309.543 140.507 312.584 141.453 314.979 143.352C317.663 145.464 319.005 148.338 319.005 151.973ZM312.644 151.938C312.671 151.078 312.501 150.223 312.146 149.438C311.792 148.654 311.262 147.961 310.599 147.413C309.254 146.341 307.573 145.781 305.854 145.832C304.119 145.764 302.416 146.312 301.045 147.378C300.36 147.918 299.814 148.613 299.451 149.406C299.088 150.199 298.92 151.067 298.959 151.938C298.94 152.738 299.11 153.532 299.457 154.254C299.804 154.976 300.317 155.604 300.955 156.089C302.349 157.17 304.075 157.734 305.839 157.685C307.562 157.717 309.243 157.153 310.599 156.089C311.246 155.61 311.769 154.984 312.125 154.262C312.481 153.539 312.659 152.743 312.644 151.938Z" fill="white"/>
</g>
<defs>
<clipPath id="clip0_0_436">
<rect width="319" height="26.8465" fill="white" transform="translate(0 136.243)"/>
</clipPath>
</defs>
</svg>
